<?xml version="1.0" standalone="no"?>
<!DOCTYPE svg PUBLIC "-//W3C//DTD SVG 1.1//EN" "http://www.w3.org/Graphics/SVG/1.1/DTD/svg11.dtd" >
<svg xmlns="http://www.w3.org/2000/svg">
<metadata></metadata>
<defs>
<font id="burst_my_bubblebold" horiz-adv-x="508" >
<font-face units-per-em="2048" ascent="1638" descent="-410" />
<missing-glyph horiz-adv-x="569" />
<glyph horiz-adv-x="0" />
<glyph horiz-adv-x="682" />
<glyph unicode=" "  horiz-adv-x="569" />
<glyph unicode="&#x09;" horiz-adv-x="569" />
<glyph unicode="&#xa0;" horiz-adv-x="569" />
<glyph unicode="!" horiz-adv-x="212" d="M37 960q-1 2 0.5 7t3.5 7q24 34 63 34q70 0 72 -144q2 -26 4.5 -52.5t4.5 -52.5l-4 -525q0 -38 -60 -45q-62 0 -70 58v85q-1 8 -2.5 17.5t-2.5 17.5l5 35q1 83 2.5 165.5t2.5 165.5q-2 69 -7 125t-12 102zM56 21v19q0 57 65 63h2q57 0 62 -66q0 -28 -46 -64h-35 q-2 0 -7 2t-6 4l-29 29q-2 2 -4 6.5t-2 6.5z" />
<glyph unicode="&#x22;" horiz-adv-x="517" d="M57 1031q0 111 114 157q51 0 77 -48v-28q0 -2 -2 -7t-3 -7q-52 -51 -52 -63q0 -31 55 -135q2 -4 1.5 -9.5t-2.5 -8.5q-31 -53 -73 -53q-73 0 -115 202zM272 1011q0 54 29 91.5t91 62.5q2 1 7.5 0.5t7.5 -1.5q58 -24 58 -64l-5 -22q0 -2 -2.5 -6.5t-4.5 -6.5 q-45 -35 -45 -52v-14q0 -22 53 -122q-7 -35 -23 -52.5t-45 -17.5q-80 0 -121 204z" />
<glyph unicode="#" horiz-adv-x="1025" d="M90 734q22 60 69 60l158 -9v114q0 96 72 96q62 0 62 -91v-144q2 5 81 5h24q23 1 38 2.5t39 2.5q-1 28 -2.5 55t-2.5 55v53q0 91 72 91q47 0 58 -60l4 -189q183 -3 183 -82q0 -39 -49 -65q-3 -2 -8.5 -2t-8.5 2q-15 7 -36.5 9.5t-51.5 2.5h-24q1 -19 2.5 -38t2.5 -38v-120 h86q77 0 77 -80q-22 -50 -62 -50h-96v-23q2 -43 5 -87t5 -88q-20 -56 -63 -56q-77 0 -77 144v120q0 -5 -186 4q4 -57 9 -112.5t10 -111.5q0 -50 -65 -58q-67 0 -79 210q-2 83 8 87q-178 0 -181 61q-2 3 -3 9t-2 8q21 61 68 61l97 -8q-1 4 -1 8v8v165q-223 2 -226 53 q-2 5 -3.5 13t-2.5 13zM451 477q0 -19 14 -19l178 -13q-1 48 -2.5 96.5t-2.5 96.5q-5 -1 -9.5 -1.5t-7.5 -0.5h-85l-85 4v-163zM638 638l4 6z" />
<glyph unicode="$" horiz-adv-x="758" d="M24 331q0 45 55 62q72 0 84 -115q15 -36 46.5 -69t82.5 -65q2 75 5 146t5 148q-92 46 -144.5 113.5t-52.5 148.5v33q0 233 204 322l3 91q-1 10 -2.5 21t-2.5 22q14 62 67 62q67 0 67 -101v-108q8 -5 30 -12.5t60 -19.5q126 -60 126 -147q0 -46 -53 -72q-30 0 -51 18.5 t-32 60.5q-28 15 -47 23.5t-33 13.5v-20l-5 -372q273 -131 273 -338q0 -137 -177 -201l-70 -10l-40 4v-9q-6 -76 -68 -76q-62 15 -62 67v55q-132 65 -200 146t-68 178zM235 685q0 -62 72 -103q1 66 2.5 133t2.5 133v69q-77 -66 -77 -169v-63zM422 99q6 -2 14.5 -2.5 t18.5 -0.5h21q49 10 76.5 31.5t27.5 54.5v24q0 80 -150 167q-2 -71 -4 -136.5t-4 -137.5zM430 373q0 14 0.5 11t-0.5 -11z" />
<glyph unicode="%" horiz-adv-x="1001" d="M6 -7q0 12 28 46t83 92l-1 -2q266 357 646 1024q40 68 70.5 101.5t50.5 33.5h5q33 0 64 -55q-11 -44 -417 -699v1q-174 -305 -390 -564q-45 -45 -80 -45q-59 22 -59 67zM124 986q0 154 174 234l46 5h18q227 -30 227 -187q0 -149 -206 -230l-48 -5h-21q-190 25 -190 183z M254 990q0 -22 13.5 -36.5t37.5 -20.5h39q116 33 116 105v10q0 15 -18 25.5t-47 16.5q-11 -9 -21 -2q-13 8 -40 8q-80 -29 -80 -101v-5zM388 1091l13 6l-5 -5l-1 -2q-4 0 -5 1h-2zM450 112v20q0 155 174 235l41 5h30q160 0 220 -159v-28q0 -147 -206 -230l-58 -5 q-161 0 -201 162zM580 137q0 -57 57 -57h28q121 30 121 105v10q0 46 -131 48q-75 -35 -75 -96v-10z" />
<glyph unicode="&#x26;" horiz-adv-x="985" d="M25 471q0 232 221 316l47 5q110 0 225 -136l-4 285q0 71 72 71l5 -1q53 -12 53 -80q0 -49 1 -105t3 -123t5 -147t8 -176q96 46 126 119q-3 11 -8 23.5t-8 22.5q27 55 73 55q73 -25 73 -110q0 -112 -249 -255v-168q-4 -71 -63 -71q-61 0 -67 76v82q0 32 6 37 q-105 -27 -183 -27q-215 0 -316 203q-20 51 -20 104zM155 470q0 -117 124 -162l89 -15q47 0 84 7t69 23q-18 88 -52 163t-79 130q-28 24 -49.5 35t-37.5 11h-19q-83 0 -125 -140z" />
<glyph unicode="'" horiz-adv-x="296" d="M75 1075q17 68 68 68l9 -2q107 -54 107 -151q-39 -202 -116 -207q-48 0 -63 75q49 94 49 122v5q0 23 -47 67z" />
<glyph unicode="(" horiz-adv-x="436" d="M28 547v29q0 353 241 643q22 15 41 21.5t34 6.5q57 0 57 -79q-10 -33 -69 -61q-175 -251 -175 -531v-24q0 -337 161 -438q74 -18 74 -79q-12 -58 -58 -58q-48 0 -104.5 46t-120.5 140q-42 82 -61.5 178t-19.5 206z" />
<glyph unicode=")" horiz-adv-x="468" d="M37 1168q0 79 59 79q17 0 35.5 -6.5t40.5 -20.5l4 -3q124 -146 186 -305t62 -336v-29q0 -219 -86 -388q-134 -182 -232 -182q-44 0 -59 61q0 29 22.5 48.5t57.5 29.5q164 105 164 436v24q0 140 -46 272.5t-137 258.5q-60 28 -71 61z" />
<glyph unicode="*" horiz-adv-x="1193" d="M72 744q-11 63 40 81l75 -10q50 -1 181 23q32 61 61.5 123.5t60.5 123.5q55 76 80 85q47 17 79 -48q14 -36 28 -103.5t31 -164.5h32q63 0 134.5 4.5t152.5 12.5q48 -6 77.5 -19.5t37.5 -35.5q21 -63 -213 -204h1q-46 -31 -88 -59t-88 -58q5 -77 23.5 -158t51.5 -172 q5 -78 -44 -96q-26 -8 -74 26t-115 106q-38 35 -75 68t-76 69q-61 -28 -124.5 -57t-123.5 -58q-57 -3 -77 49q-6 18 123 276q-20 32 -165 180zM281 695l24 -26q5 10 8.5 18t5.5 14q-11 -1 -20 -2.5t-18 -3.5zM323 424q14 5 32 13q-11 16 -11 21q-9 -11 -21 -34zM397 574 q0 -3 2 -3zM400 569q0 -1 1 -1zM400 570q69 -75 72 -73l-1 -1q152 66 147 78l-27 150q-32 -2 -62.5 -4.5t-64.5 -4.5q-32 -61 -48.5 -97.5t-15.5 -47.5zM513 848q15 1 28 2.5t33 3.5q-3 29 -6 52t-8 43q-16 -29 -27.5 -54t-19.5 -47zM565 404q30 -32 51.5 -53t34.5 -35 q-5 30 -11 59l-12 58q-50 -26 -63 -29zM711 722l5 1q3 2 20 -83q78 45 122.5 70t55.5 32q-9 -3 -41.5 -7.5t-88.5 -12.5q-6 -1 -12.5 3t-8.5 9q4 -6 -47 -10z" />
<glyph unicode="+" horiz-adv-x="749" d="M81 503q0 69 162 69l17 2q-8 58 -12 111.5t-4 97.5q0 139 72 139h11q20 -3 51 -41l-5 -106q4 -50 6.5 -93.5t6.5 -93.5q58 3 115 6t116 7q45 0 63 -66q0 -30 -33 -45.5t-91 -17.5q-66 -5 -104.5 -5t-43.5 4q19 -109 28 -174t9 -89q0 -120 -72 -120q-34 0 -62 53l5 69 q-8 54 -18 117.5t-18 119.5q-35 -2 -69 -4.5t-68 -4.5q-56 0 -62 65z" />
<glyph unicode="," horiz-adv-x="260" d="M53 128v10q0 56 69 67l11 -2q107 -50 107 -170v-20q0 -143 -85 -143q-49 16 -59 44v17l14 81v30q0 28 -50 72q-2 2 -4.5 7t-2.5 7z" />
<glyph unicode="-" d="M78 386q19 55 67 55h154q134 0 134 -67q0 -38 -54 -67l-76 5h-153q-72 0 -72 74z" />
<glyph unicode="." horiz-adv-x="272" d="M83 89q27 56 68 56q46 0 67 -59q0 -56 -68 -71q-54 0 -67 74z" />
<glyph unicode="/" horiz-adv-x="965" d="M-5 -19q0 19 110 138l-1 -2q266 357 646 1024q80 134 122 134h5q35 0 63 -55q-10 -41 -416 -698v1q-176 -306 -390 -564q-45 -45 -81 -45q-58 21 -58 67z" />
<glyph unicode="0" horiz-adv-x="761" d="M54 498v24q0 260 216 464l49 10q200 0 357 -281q30 -101 30 -198q0 -406 -268 -508l-48 -5q-177 0 -306 305q-30 115 -30 189zM183 502q0 -244 175 -364q6 -1 13.5 -2.5t14.5 -2.5h1h12q60 0 103 72t70 210q1 14 2.5 29t2.5 30v57q0 236 -219 331l-25 4 q-150 -134 -150 -335v-29z" />
<glyph unicode="1" horiz-adv-x="236" d="M37 646v39q0 297 86 297h9q58 -24 58 -68q-24 -92 -24 -210v-90q8 -130 16.5 -271.5t16.5 -272.5q7 -7 5 -18q-16 -67 -66 -67q-67 0 -67 127q-16 213 -25 349t-9 185z" />
<glyph unicode="2" horiz-adv-x="789" d="M47 109q0 138 201 254l64 10q41 0 115 -23q8 40 8 109v67q0 159 -171 230h-30q-2 0 -30 -48l-45 -20q-64 16 -64 65q11 40 35.5 71t59.5 52l60 10q143 0 278 -210q37 -72 37 -193v-26l-19 -177q187 -170 220 -283q0 -41 -64 -70q-43 2 -107 121q-20 25 -42.5 49t-51.5 50 q-107 -191 -270 -191q-184 27 -184 153zM176 105q9 -8 26.5 -14t40.5 -6q51 0 87 33t62 107q-20 11 -36 15t-36 4h-5q-81 0 -139 -128v-11z" />
<glyph unicode="3" horiz-adv-x="673" d="M53 121q0 43 49 69q4 2 10 1.5t9 -2.5q121 -79 215 -79q126 0 173 142v60q0 86 -113 124h-17q-38 -1 -79 -2.5t-79 -2.5q-48 24 -48 68q0 53 131 76q157 75 157 139v39q0 85 -133 129h-40q-47 0 -90 -59q-2 -2 -6.5 -5t-6.5 -3l-24 -5q-51 0 -66 74q63 127 212 127h5 q171 0 269 -200l9 -60v-22q0 -91 -98 -189q146 -95 146 -252v-5q0 -211 -235 -293l-76 -9q-234 30 -274 140z" />
<glyph unicode="4" horiz-adv-x="588" d="M37 476q9 95 14 174.5t5 145.5q-4 16 -7.5 33.5t-7.5 33.5q0 48 72 66q77 -21 77 -179l-24 -264v-22l35 -5q18 -2 45 -5.5t63 -7.5l-2 74t-2 73q0 362 70 370l13 4q39 0 67 -53q-11 -100 -15.5 -182t-4.5 -148l3 -135q8 3 16 5t15 5q48 0 66 -66q0 -47 -85 -77 q4 -66 7 -136.5t6 -136.5q-21 -58 -67 -58q-72 0 -72 172q-1 44 -2.5 78t-1.5 78q-236 30 -261 70q-22 37 -22 93z" />
<glyph unicode="5" horiz-adv-x="669" d="M26 742v10q0 172 168 172l157 -9l31.5 4.5l31.5 4.5q58 -15 58 -72q0 -58 -125 -67l-173 10q-19 -3 -19 -19v-34q0 -69 5.5 -124.5t18.5 -97.5q98 78 173 78h10q177 0 254 -287l9 -70q0 -196 -196 -266l-60 -10q-185 0 -309 172v15q0 52 64 63q10 0 40 -22.5t75 -63.5 q68 -29 118 -29h33q40 0 65 25.5t36 73.5v64q0 66 -25 115t-77 86q-3 1 -7 2.5t-7 2.5h-28q-43 0 -180 -125h-16q-67 0 -96 179q-14 69 -21.5 123t-7.5 96z" />
<glyph unicode="6" horiz-adv-x="540" d="M25 212l9 53q-2 29 -4.5 59t-4.5 59q0 364 145 570q56 54 114 54q56 0 62 -66q0 -45 -88 -75q-101 -180 -104 -454q43 35 84.5 53.5t78.5 18.5q164 0 203 -235q-48 -268 -236 -268h-10q-55 0 -105 37t-89 103q-43 9 -55 91zM174 241q34 -133 103 -136q103 33 103 98l4 27 v38q0 35 -19.5 57t-54.5 30h-12q-40 0 -124 -108v-6z" />
<glyph unicode="7" horiz-adv-x="584" d="M33 830v10q0 24 18 39.5t56 17.5l170 -33h34l-4 -1l192 44q66 -17 66 -72q-87 -128 -105 -290l-67 -478q-21 -90 -90 -90q-54 18 -54 60q14 44 31.5 158.5t40.5 305.5q8 60 21.5 120.5t30.5 123.5q-17 -3 -34.5 -5.5t-34.5 -5.5h-29q-242 32 -242 96z" />
<glyph unicode="8" horiz-adv-x="632" d="M41 221v12q0 115 135 253q-54 45 -77.5 89t-23.5 94v5q0 148 180 210l-1 -1q14 7 31 9t39 2q144 0 211 -178v-23q0 -84 -140 -203q202 -160 202 -291q0 -146 -226 -218q-11 -5 -26.5 -8.5t-34.5 -3.5h-15q-173 0 -244 192zM171 210q31 -111 105 -111h30q77 15 119.5 41.5 t42.5 63.5q0 80 -181 207q-58 -45 -87 -88t-29 -80v-33zM198 664l1 5v-2q-1 -1 -1 -3zM199 667q2 -45 79 -96q51 26 82 54.5t46 66.5v20q0 3 -3 5.5t-10.5 8t-20.5 15t-32 24.5h-35q-77 0 -106 -98z" />
<glyph unicode="9" horiz-adv-x="552" d="M25 542q0 193 219 347q58 20 92 20h3q160 -22 160 -93l-24 -229q4 -112 7.5 -222.5t7.5 -222.5q0 -197 -67 -197h-10q-20 0 -35.5 13t-26.5 36l9 158q-2 75 -4.5 149.5t-4.5 149.5q-97 -79 -168 -79q-134 0 -158 170zM154 532q10 -31 14 -31h20q67 0 151 144l-2 -3 q11 28 16.5 61.5t6.5 71.5q-8 3 -19 4h-5q-92 0 -177 -185l-5 -25v-37z" />
<glyph unicode=":" horiz-adv-x="296" d="M95 465q27 53 68 53l4 -1q63 -18 63 -66t-67 -68q-68 21 -68 82zM98 273v19q33 48 67 48l7 -1q56 -19 56 -66q0 -56 -68 -62q-62 9 -62 62z" />
<glyph unicode=";" horiz-adv-x="200" d="M13 -25l33 65q-2 6 -0.5 15t3.5 19t3 19t0 14q5 15 9 24.5t8.5 14.5t11.5 6.5t19 1.5q61 0 76 -107q0 -84 -91 -147q-30 0 -48.5 18.5t-23.5 56.5zM33 328q15 69 68 69q39 0 63 -61q-18 -69 -68 -69q-38 0 -63 61z" />
<glyph unicode="&#x3c;" horiz-adv-x="592" d="M87 380q0 6 11.5 20t32.5 35.5t50.5 48.5t64.5 58q64 73 113.5 116.5t75.5 47.5h2q15 0 30 -12t32 -34v-17q0 -17 -28.5 -49t-83.5 -80q-25 -26 -52 -54.5t-52 -54.5q49 -42 96 -82t98 -82q26 -2 39 -19.5t18 -49.5q-22 -61 -69 -61q-57 15 -219 163q-13 13 -46.5 25.5 t-89.5 23.5q-23 34 -23 57z" />
<glyph unicode="=" horiz-adv-x="564" d="M98 441q0 74 167 74l151 5q66 -5 66 -67q0 -26 -17 -40t-49 -19l-242 -13q-7 -5 -13 -5q-52 0 -63 65zM114 275q0 75 166 75l151 14q33 -2 49.5 -23t16.5 -53q0 -53 -63 -63l-245 -9q-5 -5 -13 -5q-53 0 -62 64z" />
<glyph unicode="&#x3e;" horiz-adv-x="600" d="M145 155q0 51 204 237q-45 57 -81 105.5t-61 86t-38.5 63t-13.5 37.5q20 51 72 51l11 -3q26 -20 69 -73.5t104 -142.5l-2 2q60 -69 121 -100l13 -34q0 -30 -26.5 -51.5t-80.5 -32.5q-45 -35 -92 -83.5t-97 -115.5q-2 -2 -6.5 -5t-6.5 -3l-29 -6q-60 22 -60 68z" />
<glyph unicode="?" horiz-adv-x="480" d="M43 767q10 60 129 69h6q84 0 146.5 -48.5t100.5 -130.5q11 -24 11 -61v-9q0 -85 -52.5 -139t-166.5 -82q2 -29 4.5 -59.5t4.5 -60.5q-17 -67 -68 -67q-67 0 -67 139q0 41 -19 98q0 73 136 75q99 32 99 86v29q0 37 -30.5 62t-88.5 39h-24q-12 -4 -27.5 -8.5t-26.5 -7.5 q-67 23 -67 76zM101 77q0 42 56 63h11q58 -14 58 -66q0 -58 -66 -62q-51 0 -59 65z" />
<glyph unicode="@" horiz-adv-x="717" d="M92 365v35q0 137 52 228t158 142l94 14h13q170 0 244 -201l10 -69v-18q0 -26 -5.5 -54.5t-18.5 -60.5q1 -14 2.5 -28.5t2.5 -28.5q0 -147 -214 -235l-75 -14h-28q-199 0 -235 290zM206.5 395q1.5 -37 9 -67t16.5 -45q9 -28 23 -47q24 -32 67 -32h29q102 0 152 88 q-15 2 -28.5 8.5t-25.5 14.5q-33 -42 -64 -63.5t-63 -18.5q-10 1 -29.5 14t-37.5 37.5t-28.5 59t-1 78t45 96.5t108.5 113l43 4q80 0 102 -80l-10 -94v-8q0 -15 4 -23q8 17 11.5 36t3.5 40v24l1 -4q-30 129 -124 129l-15 4q-59 -14 -96.5 -43t-58.5 -66t-28 -77.5 t-5.5 -77.5zM320 379q0 -1 2 -3v-4zM322 376q3 -8 3 -9h7q16 0 45 113q-54 -50 -55 -104zM377 480q2 8 4 15.5t4 16.5v8l19 -19h-3q-14 -11 -24 -21zM442 319l16 8l-9 -12q-4 2 -5 4h-2zM503 292q2 3 3 6t3 7v4l20 -19h-13.5t-12.5 2z" />
<glyph unicode="A" horiz-adv-x="1057" d="M7 47q17 51 44.5 203t64.5 407q115 497 435 497h11h4q321 -8 428 -571q28 -157 33 -542q-12 -26 -27.5 -38t-38.5 -11q-67 1 -67 163v14v27q0 57 -4 124.5t-14 155.5q-65 2 -129.5 2.5t-126.5 0.5q-90 0 -175 -1.5t-169 -5.5l-59 6q-25 -252 -61 -376q-35 -124 -81 -124 h-1h-8q-61 19 -59 69zM236 601v6q0 -1 1 -1q-1 -2 -1 -5zM237 606q4 -2 17 -2q97 3 193 4.5t181 1.5q62 0 117 -1.5t111 -3.5q-84 417 -298 422h-9q-229 0 -312 -421z" />
<glyph unicode="B" horiz-adv-x="737" d="M29 994l9 120q-2 6 -4.5 14.5t-4.5 13.5q0 81 216 105h36q246 0 369 -278l15 -93v-32q0 -159 -105 -220q158 -96 158 -295v-14q0 -226 -251 -310l2 1q-94 -41 -195 -41q-188 19 -231 119q0 39 44 60v28q-17 178 -30.5 358t-22.5 357zM160 984q0 -45 4.5 -117.5 t12.5 -172.5q20 2 40.5 4.5t39.5 4.5l94 -10q91 14 137 42t46 70l5 50q-2 182 -212 256q-17 1 -33 2.5t-33 2.5q-96 0 -96 -25zM185 551q10 -104 19 -214t19 -213l-3 -22q13 -6 27 -6h44q145 0 280 123q7 21 11.5 39.5t4.5 31.5v34q0 88 -38.5 141.5t-111.5 73.5 q-22 6 -41.5 12t-40.5 11l-126 -14z" />
<glyph unicode="C" horiz-adv-x="881" d="M26 662v20q0 412 299 549q91 33 167 33q191 0 238 -132v-8q0 -21 -16 -37.5t-48 -30.5q-15 0 -35 15.5t-49 50.5q-11 3 -24 5.5t-25 5.5h-56q-84 0 -154 -50.5t-124 -142.5q-20 -48 -31 -112.5t-11 -140.5v-25q0 -195 56 -323t160 -187q36 -14 83.5 -21.5t103.5 -7.5 q119 0 179 80q2 2 6.5 5t6.5 3l24 5q42 0 65 -57q1 -2 1 -7.5t-2 -7.5q-75 -152 -290 -152q-332 0 -455 289q-35 91 -52 186t-17 195z" />
<glyph unicode="D" horiz-adv-x="769" d="M9 1080v22q0 115 76 117l83 10h6q175 0 349 -117q71 -77 114 -162t57 -180l-1 1q20 -88 30 -161.5t10 -133.5q0 -515 -447 -515h-39q-150 0 -150 92v78q0 138 -21.5 373.5t-66.5 575.5zM140 1086q21 -166 37.5 -312.5t27.5 -269t17 -218t6 -160.5v-33q2 0 2.5 -0.5 t2.5 -0.5h73q296 0 296 360v28q-14 239 -69.5 384t-152.5 187l1 -1q-127 47 -216 47h-15q-8 -1 -10 3v-14z" />
<glyph unicode="E" horiz-adv-x="777" d="M25 1094v20l10 141q-1 8 -2.5 16t-2.5 16q0 60 77 60l429 -19q72 -2 72 -64v-25q-25 -43 -65 -43l-381 20q-3 -17 -4.5 -39.5t-1.5 -48.5v-37q3 -110 3.5 -191.5t1.5 -135.5t2.5 -80.5t7.5 -26.5q73 4 150 7.5t150 7.5q8 0 14 -6q16 -15 23 -31t7 -31q0 -68 -189 -68 q-19 -1 -34.5 -2t-30.5 -2.5t-30 -2.5t-33 -2q11 -105 18.5 -199.5t12.5 -194.5q5 -8 9 -10q31 2 62.5 5t63.5 5h132q89 0 161 20q62 -21 62 -69q0 -82 -243 -82h-111q-32 -2 -64 -5t-62 -5q-130 0 -146 193q0 45 -14.5 206.5t-43.5 443.5z" />
<glyph unicode="F" horiz-adv-x="645" d="M44 416l5 766q9 60 68 60l19 -10q11 1 21.5 2.5t21.5 2.5h286q23 1 46 2.5t46 2.5q49 0 60 -60v-18q0 -58 -156 -58h-281q1 -21 2.5 -41.5t1.5 -40.5l-4 -325q43 2 86.5 4.5t86.5 4.5q59 0 65 -66q0 -65 -106 -65q-35 -2 -69.5 -5t-67.5 -5v-23q4 -121 7 -248.5t7 -248.5 q-12 -44 -48 -63h-20q-68 0 -68 93q-2 84 -4.5 169t-4.5 170z" />
<glyph unicode="G" horiz-adv-x="949" d="M14 569v20q0 365 322 517q72 31 154 31h31q81 -8 81 -68q0 -36 -44 -63h-73q-236 0 -326 -292q-13 -39 -13 -106v-44q0 -140 66 -245t195 -174q17 -5 34 -9.5t35 -8.5h58q126 0 223 309q-96 -10 -179 -24t-150 -32h-15q-44 25 -44 63q0 74 173 92l-3 -1q41 11 114 20.5 t180 19.5q54 0 60 -92v-10q0 -145 -154 -360q-102 -116 -215 -116h-29q-214 0 -401 271q-80 148 -80 302z" />
<glyph unicode="H" horiz-adv-x="785" d="M29 1094v76q10 76 68 76q59 0 63 -73v-58q0 -44 1 -87.5t2.5 -91t4 -99t6.5 -110.5q32 2 65.5 4.5t65.5 4.5h195q70 0 95 7q-1 5 -1.5 10.5t-1.5 9.5v36q0 59 -5.5 158.5t-18.5 242.5q0 62 72 65h1q68 0 68 -202q7 -81 18 -333.5t26 -669.5q-17 -67 -68 -67t-64 69 q0 72 -5 206t-18 346q-30 -2 -57 -4.5t-56 -4.5h-184q-39 0 -68.5 -1.5t-52.5 -5.5v-493q1 -14 2 -28.5t2 -26.5q-9 -62 -63 -62h-19q-50 0 -54 106v311q-4 173 -9 344.5t-10 344.5z" />
<glyph unicode="I" horiz-adv-x="717" d="M17 1115q0 71 184 71q27 1 55 2.5t56 2.5l137 -5h-1q40 2 77 6.5t71 10.5h3q51 0 59 -59q0 -79 -229 -79l-48 4v-82q4 -115 7.5 -229.5t6 -223t4 -207t1.5 -182.5h164q14 1 27 2t27 2q21 0 35 -13.5t24 -40.5q0 -71 -116 -71h-315q-39 -2 -81 -4t-80 -4q-39 0 -63 55 q0 70 145 70q29 2 50.5 3.5t51.5 3.5q-5 542 -24 899l3 22q-42 -3 -84.5 -6.5t-84.5 -5.5q-62 15 -62 58z" />
<glyph unicode="J" horiz-adv-x="861" d="M10 317v11q22 51 63 51q62 0 119 -170q113 -136 235 -136h5q169 0 229 276v-1q7 45 10.5 93.5t3.5 102.5v120q-2 74 -5 148t-5 148q0 259 68 259h15q38 0 64 -61q-12 -45 -15 -186q2 -74 4.5 -148.5t4.5 -148.5v-49q0 -418 -111 -538l1 2q-118 -148 -269 -148 q-189 0 -357 219z" />
<glyph unicode="K" horiz-adv-x="729" d="M13 1212q0 48 66 54q42 0 65 -54l5 -301v-232q1 -21 2.5 -33.5t2.5 -33.5h6q57 22 113.5 80t116.5 152l-1 -2q85 158 85 322v69q0 67 68 67q54 0 63 -68v-76q0 -330 -286 -585q105 -63 193 -172t155 -265q20 -56 26 -117q-24 -55 -68 -55q-66 0 -73 128q-25 59 -57.5 115 t-74.5 113v-1q-141 173 -224 174q-33 -8 -37 -4q7 -119 14 -236.5t15 -235.5q-15 -58 -63 -58h-24q-35 17 -44 47q-2 97 -11 226t-23 289q-2 2 -4 7t-1 8l5 23q-1 32 -2.5 69t-2.5 69v112q-1 102 -2.5 202.5t-2.5 202.5z" />
<glyph unicode="L" horiz-adv-x="777" d="M14 1034q0 112 3 213q3 50 66 57h2q41 0 63 -59q-3 -116 -3 -234q0 -422 33 -860q2 1 6 1q75 -10 161 -15t185 -5h44q45 0 105 15q24 0 38.5 -17.5t22.5 -49.5q-24 -84 -181 -84h-6q-241 10 -364 24q-14 -2 -29.5 -4.5t-29.5 -4.5q-59 0 -81 52q-17 277 -26 520t-9 451z " />
<glyph unicode="M" horiz-adv-x="1049" d="M11 1226q16 57 68 57q54 0 120 -137l-1 1l305 -528q106 289 180 468.5t121 253.5l38 20q37 0 56 -38.5t21 -106.5q5 -98 13.5 -224.5t19.5 -276t24.5 -319t30.5 -354.5q0 -51 -65 -60q-76 0 -76 192q-9 112 -17.5 218.5t-16.5 212.5t-16.5 213.5t-17.5 220.5 q-16 -42 -44.5 -120t-73.5 -196v1q-107 -315 -169 -315h-4q-50 0 -115 142q-59 104 -116.5 207.5t-115.5 208.5q1 -12 1 -24.5t1 -23.5l-5 -899q0 -2 -2 -6.5t-4 -6.5q-15 -16 -31 -23t-31 -7q-52 0 -63 80v95q-1 23 -2.5 48t-2.5 49l5 78q1 131 2.5 261.5t2.5 262.5 q-2 117 -7 210t-13 165z" />
<glyph unicode="N" horiz-adv-x="869" d="M37 32l15 322v-1q-1 55 -2.5 111t-2.5 112v500q0 189 58 189h15q26 0 73 -70t109 -198q94 -177 190 -355.5t191 -355.5q1 140 2.5 278.5t2.5 278.5q0 90 -5 178.5t-15 178.5q21 61 69 61q77 0 77 -258q1 -29 2.5 -58t2.5 -58l-5 -821q1 -13 2.5 -27t2.5 -26 q0 -37 -60 -64q-60 0 -123 158l1 -1q-117 217 -230 430.5t-229 430.5v-95q1 -137 2.5 -272t2.5 -272q0 -308 -51 -341l-8 -7l-24 -7q-63 18 -63 59z" />
<glyph unicode="O" horiz-adv-x="1133" d="M35 585v19q0 429 281 671q159 76 265 76h10q238 -4 429 -371q32 -84 48 -163.5t16 -154.5q0 -373 -302 -610q-125 -79 -232 -79h-19q-278 0 -455 355q-41 138 -41 257zM166 580q0 -171 73.5 -289t216.5 -179q23 -6 45 -9.5t39 -3.5q197 0 347 272v-1q34 69 50 144.5 t16 157.5q0 263 -168 448q-68 96 -195 100h-4q-204 -1 -320 -185l1 3q-101 -225 -101 -419v-39z" />
<glyph unicode="P" horiz-adv-x="773" d="M28 1236q25 55 69 55q51 0 68 -95q57 40 120.5 67.5t117.5 27.5q224 0 313 -268q17 -71 17 -116v-44q0 -218 -213 -356q-87 -42 -190 -42q-86 0 -155 47v-485q-12 -21 -27.5 -32t-36.5 -11q-68 0 -68 93v81q-1 24 -2 49t-2 49l4 79q1 131 2.5 261.5t2.5 262.5 q-2 112 -7 206t-13 171zM175 995l4 -78v-205q45 -116 166 -116q100 0 164.5 65t92.5 177v64q0 191 -150 253q-12 1 -25 2.5t-25 2.5q-151 -1 -227 -165z" />
<glyph unicode="Q" horiz-adv-x="1145" d="M39 514v19q0 343 227 579q194 145 327 145h5q174 0 369 -226q38 -46 67 -134.5t49 -223.5l5 -91q0 -116 -38 -223t-119 -212q26 -21 53 -42.5t53 -41.5q2 -2 4.5 -6.5t2.5 -6.5l5 -25q0 -41 -60 -66q-16 2 -54.5 25.5t-98.5 70.5q-157 -109 -282 -109h-34 q-211 0 -398 254q-83 145 -83 314zM170 509q0 -149 70.5 -254.5t204.5 -165.5q20 -5 39 -8.5t36 -3.5h44q89 0 177 70q-186 153 -192 184v17q8 19 19.5 32.5t31.5 21.5h34l199 -170q22 16 48 66t58 134q3 30 6 61.5t7 61.5v61q0 373 -275 487l2 -1q-18 6 -34 12t-35 12h-17 q-78 0 -158 -51t-162 -150q-52 -91 -77.5 -191t-25.5 -215v-10zM741 147q3 3 9 7l-7 -14v6z" />
<glyph unicode="R" horiz-adv-x="809" d="M21 1229q0 36 60 65q20 0 52 -29q83 63 175 63q219 0 306 -260l9 -83q0 -171 -126 -331q57 -28 154 -157q25 -53 37.5 -140t12.5 -215q6 -24 14 -42.5t19 -26.5q35 -21 35 -56q0 -64 -58 -64h-5q-100 0 -136 196q0 300 -83 349q-33 32 -59.5 46.5t-48.5 15.5 q-42 -13 -72 -18.5t-53 -5.5h-87v-493q-8 -60 -63 -60q-60 0 -68 80v98q-1 24 -2.5 49t-2.5 49l5 79v-1q1 131 2.5 260t2.5 260q-2 115 -7 207t-13 165zM162 1117l10 -314v-128q36 5 71.5 11t71.5 10h39q71 59 104.5 129.5t33.5 157.5q0 153 -129 206l4 -2q-11 2 -21 4.5 t-21 4.5h-37q-54 0 -126 -79z" />
<glyph unicode="S" horiz-adv-x="829" d="M10 228q24 83 87 83h20q48 -33 48 -70l-18 -37q61 -123 173 -123h49q91 0 157.5 39t106.5 114q2 8 4 15t4 15v27q0 109 -337 246q-265 148 -265 324v32q0 210 229 322q58 15 96 15h15q134 0 287 -103l31 -59q2 -2 2 -7.5t-1 -7.5q-19 -55 -67 -55q-17 0 -36.5 16.5 t-42.5 46.5q-124 43 -159 43h-44q-88 -21 -133.5 -77t-45.5 -147v-37q0 -127 402 -295q200 -119 200 -271q0 -186 -260 -297q-46 -14 -88 -21.5t-79 -9.5q-224 0 -331 236z" />
<glyph unicode="T" horiz-adv-x="849" d="M-10 1141q0 49 60 60h5q64 -7 124 -10.5t117 -3.5h29q105 2 209.5 4.5t209.5 4.5q7 6 19 4q63 -15 63 -67q0 -62 -82 -68l-296 -9q5 -84 9 -168t9 -167l-9 -564q1 -36 2 -72.5t2 -72.5q0 -48 -65 -59q-71 0 -71 161l5 699q0 114 -12 243q-318 0 -323 63q-1 5 -2.5 11 t-2.5 11z" />
<glyph unicode="U" horiz-adv-x="969" d="M34 830v280q5 32 21.5 48.5t46.5 16.5q63 0 63 -73v-272q0 -718 267 -718q129 0 214 140t126 411q2 48 5 95.5t5 95.5q-2 66 -5 131t-5 131q0 51 66 59q70 0 70 -165q1 -38 2.5 -77.5t2.5 -77.5q0 -484 -207 -739q-128 -135 -274 -135q-308 0 -378 531q-10 76 -15 155 t-5 163z" />
<glyph unicode="V" horiz-adv-x="997" d="M31 1282q15 58 72 58t102 -234l-1 1q79 -315 138 -538.5t101 -360.5q29 70 102.5 263t190.5 512v-1q104 312 142 319h-1q3 1 6.5 2.5t7.5 2.5q48 0 72 -43v-18q-27 -89 -140 -397.5t-309 -829.5q-31 -57 -80 -57q-18 0 -40 36t-48 105t-55 169.5t-60 228.5 q-24 92 -49 191t-51 199.5t-51 200t-49 191.5z" />
<glyph unicode="W" horiz-adv-x="1830" d="M21 1318q16 58 73 58t102 -234l-1 1q79 -315 138 -538.5t101 -360.5q29 70 102.5 263t189.5 512v-1q103 310 143 319h-1q3 1 6.5 2.5t6.5 2.5q88 0 106 -118l-1 2q171 -708 272 -1023q72 183 171.5 449.5t225.5 613.5l34 28h30q60 -11 60 -63q-134 -371 -247.5 -677.5 t-207.5 -547.5q-22 -40 -66 -57q-79 0 -158 335v-1q-35 120 -88.5 320.5t-124.5 484.5q-364 -1001 -404 -1064q-32 -27 -59 -27q-18 0 -40 36t-47.5 105t-55 169.5t-60.5 228.5q-24 92 -49 191t-51 199.5t-51 200t-49 191.5z" />
<glyph unicode="X" horiz-adv-x="1057" d="M27 29q0 21 107 135l-1 -2q117 152 197.5 273.5t126.5 215.5q-91 159 -183.5 320t-183.5 321q0 55 69 68h4q44 0 187 -263h-1q44 -78 76 -135t54 -95t35.5 -60t20.5 -29q123 206 210 343.5t135 206.5l34 13q70 -17 70 -74q-180 -295 -273.5 -450.5t-99.5 -172.5 q88 -153 176.5 -285t179.5 -247q22 -17 34 -34t12 -34q0 -52 -74 -64q-52 23 -167 172l-238 365q-63 -93 -124.5 -184.5t-124.5 -183.5q-144 -188 -191 -188q-67 16 -67 68z" />
<glyph unicode="Y" horiz-adv-x="953" d="M22 1047l4 230q-4 5 -4 12q0 3 1 6q14 58 67 58q54 0 68 -69l-5 -203v-39q0 -431 179 -526l-3 1q27 -9 47.5 -14t34.5 -5h53q166 0 228 426q15 85 30 371q18 48 68 48q44 0 63 -56l-5 -38v-55q14 -260 29 -523t29 -522q0 -206 -290 -233l-89 -5q-229 5 -342.5 31 t-113.5 71v8q24 64 77 64q110 -43 384 -43q240 0 243 101q-7 118 -13.5 237.5t-12.5 239.5q-17 -31 -33 -61.5t-31 -60.5q-111 -131 -231 -131h-29q-256 0 -358 320q-45 154 -45 360z" />
<glyph unicode="Z" horiz-adv-x="921" d="M26 99q0 78 161.5 328t487.5 673q-17 1 -33.5 2t-32.5 2h-170q-226 0 -308 -15q-61 24 -61 69q0 77 296 77h454q61 -8 61 -63q0 -30 -50 -72q-124 -168 -246.5 -336t-246.5 -337l1 1q-74 -110 -117 -183.5t-55 -111.5q38 1 77 2.5t78 2.5h464q61 -8 61 -63q0 -54 -80 -68 h-425q-184 0 -244 -15q-72 22 -72 107z" />
<glyph unicode="[" horiz-adv-x="569" d="M9 1163q0 42 56 62h12q28 -6 55.5 -9.5t54.5 -3.5h29q53 2 108.5 4.5t109.5 4.5q50 -21 50 -62q0 -72 -144 -72q-37 -1 -74.5 -2.5t-73.5 -2.5h-21l-25 3q3 -57 5.5 -116t6.5 -117l-5 -711l78 -8l228 15q37 0 63 -60q0 -79 -181 -79q-27 -1 -55.5 -2.5t-55.5 -2.5 q-206 0 -206 86v149q-1 11 -2.5 22t-2.5 22l5 39q1 127 2.5 253t2.5 252q-5 85 -10 168.5t-10 167.5z" />
<glyph unicode="\" horiz-adv-x="937" d="M-11 1307q23 54 73 54q42 0 171 -240l-1 1q163 -294 311.5 -533t276.5 -419q41 -41 61 -67.5t20 -43.5q-20 -59 -76 -59q-64 29 -170 180q-128 189 -287 454t-342 598q-17 17 -25.5 35.5t-11.5 39.5z" />
<glyph unicode="]" horiz-adv-x="533" d="M34 74q22 58 57 58l198 -14q14 2 30.5 4t32.5 4q0 178 -1 355t-2 356l11 233q-6 -1 -11 -2t-10 -1h-17l-128 5q-126 0 -126 72q0 41 44 62l191 -10h24q45 0 99 16q56 -24 56 -64l-16 -336q1 -128 1.5 -254t1.5 -253q1 -10 2 -19.5t2 -18.5l-4 -45v-147q0 -87 -181 -87 l-95 5q-159 0 -159 81z" />
<glyph unicode="^" horiz-adv-x="460" d="M78 423q0 29 76 125l-2 -2q73 135 118 135q60 0 99 -156q49 -79 49 -104q-11 -27 -29 -39.5t-42 -12.5q-48 0 -91 102q-72 -107 -116 -107q-41 0 -62 59z" />
<glyph unicode="_" horiz-adv-x="504" d="M17 64q0 58 94 71l139 -9q39 3 83.5 6.5t83.5 7.5q60 -21 60 -67q0 -77 -211 -77l-134 5h-33q-4 -1 -9 -2.5t-8 -2.5q-53 0 -65 68z" />
<glyph unicode="`" horiz-adv-x="324" d="M69 823q21 58 67 58l7 -1q84 -32 161 -212q0 -52 -68 -65q-14 0 -44 35t-75 104q-48 46 -48 81z" />
<glyph unicode="a" horiz-adv-x="825" d="M9 290q0 351 270 444q67 18 142 18h9q60 0 108 -3t84 -14t59 -32.5t34 -57.5q15 -54 15 -99v-11q-2 -50 -7 -87q-2 -20 -2 -41q1 -23 3 -47q6 -46 17.5 -97.5t27 -107.5t30.5 -116q0 -50 -68 -63q-31 0 -52 42.5t-33 122.5q-2 8 -4.5 16.5t-1.5 4.5q-179 -186 -358 -186 q-185 0 -264 231zM133 292q0 -137 124 -187h34q83 0 156.5 82.5t141.5 247.5q0 7 1.5 14t2.5 15l5 141q-17 14 -192 17q-192 0 -255 -155v1q-8 -29 -13 -73t-5 -103z" />
<glyph unicode="b" horiz-adv-x="801" d="M31 1073v67q0 115 77 115q47 0 62 -62l-9 -93v-13q0 -81 1 -154.5t2.5 -145.5t4.5 -146.5t8 -157.5q5 10 11 21.5t14 26.5q106 144 232 144h19q202 0 300 -264q17 -70 17 -115v-29q0 -211 -216 -287l-98 -15q-52 0 -122 17t-147 48q-26 -17 -45 -17h-5q-43 0 -64 89 t-22 251q-4 108 -7.5 213t-6.5 198.5t-4.5 172.5t-1.5 136zM199 162q0 -9 185 -62q19 -1 37.5 -2.5t37.5 -2.5q129 0 168 102v-1q4 14 6.5 27.5t6.5 27.5v69q0 63 -34 116.5t-96 97.5q-13 3 -25 5.5t-25 6.5h-31q-70 0 -126 -92t-104 -279v-13z" />
<glyph unicode="c" horiz-adv-x="773" d="M27 302v8q0 201 241 376q64 22 95 22h12q213 -36 213 -111q0 -38 -48 -64q-3 -2 -8.5 -3t-8.5 1q-115 47 -132 47h-28q-48 0 -98.5 -54.5t-95.5 -144.5q-12 -39 -12 -84q0 -75 47 -119.5t138 -57.5q11 -1 21 -2.5t22 -2.5q69 6 141.5 12t141.5 12q59 0 59 -62 q0 -70 -141 -72q-95 -15 -180 -15h-39q-266 0 -331 251z" />
<glyph unicode="d" horiz-adv-x="757" d="M23 323v10q0 189 200 341q106 71 224 71q23 -2 46 -6.5t49 -11.5q-11 56 -16 120.5t-5 134.5q0 12 0.5 24t0.5 25q5 203 62 203h10q12 6 22 6q26 0 44 -38q24 -52 24 -181q1 -117 3 -234t7 -238v1q4 -37 7.5 -74t7.5 -74l-5 -228v-23q2 -33 4.5 -69t4.5 -70 q-5 -15 -17.5 -28t-29.5 -25h-34q-52 0 -58 172q-5 -11 -12 -24q-120 -153 -251 -153q-166 0 -268 244q-20 71 -20 125zM153 304q0 -143 135 -216q5 -1 10.5 -2.5t12.5 -2.5h14q131 0 207 298l-1 -2q9 63 13.5 114.5t5.5 92.5q-26 16 -54.5 22.5t-60.5 6.5q-183 0 -278 -231 l-4 -43v-37z" />
<glyph unicode="e" horiz-adv-x="821" d="M32 420v19q0 282 213 377q29 8 52 12t41 4h24q159 0 230 -133l10 -65v-8q0 -188 -296 -259l-68 -5h-20l-52 3q5 -137 121 -240q26 -14 49.5 -20t44.5 -6q113 0 299 161l28 11q50 0 71 -58q0 -60 -250 -207q-46 -22 -140 -37q-231 0 -328 276q-15 44 -22 87t-7 88z M158 507q3 -3 9 -7q0 -2 -0.5 -5t-0.5 -6zM167 500q16 -8 32 -8h42q113 13 172.5 45.5t59.5 83.5v24q0 22 -27 36.5t-76 21.5h-56q-117 0 -147 -203z" />
<glyph unicode="f" horiz-adv-x="569" d="M-17 550q2 29 31 42q22 9 57 9q11 0 23 -1q10 0 11 0.5t13 0.5q-12 118 -12 238q11 150 85 241t210 126l72 4l16 -1q113 -7 216 -116l5 -21q-1 -44 -57 -70q-4 -2 -10.5 -1t-10.5 3q-104 72 -133 75l-33 2h-13q-67 0 -117 -37q-56 -41 -85 -128l1 1q-2 -11 -4.5 -23.5 t-4.5 -23.5q-1 -14 -2 -27.5t-2 -25.5v-54v-107.5t-1 -46.5q32 5 66.5 9t67.5 9q52 -5 58 -75q-5 -57 -159 -66q-3 -3 -7 -4q13 -101 19 -185t6 -153q0 -50 -3 -87q-3 -51 -69 -57q-57 4 -57 86q0 11 1 24v-1q1 11 1.5 22t0.5 24q0 54 -7 132.5t-21 184.5q-23 1 -42 1t-41 1 q-69 10 -69 68v9v-1z" />
<glyph unicode="g" horiz-adv-x="732" d="M21 275v7q0 240 211 424q130 65 244 65h5q27 0 128 -29q73 0 73 -62v-75q4 -40 7.5 -82.5t7.5 -82.5l-10 -83q1 -26 2.5 -52t2.5 -52q0 -478 -121 -608q-71 -68 -152 -68q-141 0 -336 118q-4 2 -6.5 7.5t-2.5 8.5q0 5 7 5q-7 1 -12 6.5t-5 12.5q0 59 75 68 q87 -49 158.5 -72.5t130.5 -23.5q53 0 84.5 81.5t40.5 230.5q0 14 1 29.5t2 32.5q-111 -116 -238 -116h-29q-190 0 -258 218zM150 277q0 -139 93 -173h-2q9 -2 17 -4.5t17 -4.5h58q107 0 198 186q7 21 13 41t14 40q-2 66 -5 128t-5 128q-15 11 -35 17t-41 6q-103 0 -204 -68 q-118 -140 -118 -291v-5z" />
<glyph unicode="h" horiz-adv-x="961" d="M17 1269q0 54 69 66h3q30 0 49.5 -54.5t27.5 -144.5q8 -78 15 -154.5t12.5 -149.5t9 -140t5.5 -126q32 72 82.5 128t119.5 99q41 20 78 29.5t71 9.5q181 0 311 -305q22 -85 33 -163.5t11 -154.5v-10q0 -200 -60 -206q-3 -1 -6.5 -2.5t-6.5 -2.5q-43 0 -66 59l9 129v52 q0 155 -40.5 267.5t-115.5 178.5q-21 14 -40 21t-35 8h-23q-126 0 -222 -233l1 2q-71 -224 -71 -431q0 -3 -2.5 -8t-4.5 -7q-14 -11 -26 -17t-25 -6q-42 0 -63.5 77t-22.5 219q-8 177 -17.5 332t-19 279.5t-20 216t-20.5 142.5z" />
<glyph unicode="i" horiz-adv-x="220" d="M29 1087q14 63 62 63q57 0 68 -69q0 -34 -48 -70h-20q-62 0 -62 76zM39 788q20 65 67 65l6 -1q29 -9 44 -34t17 -61q4 -171 7.5 -352t6.5 -352q-25 -53 -67 -53q-52 0 -62 75l-15 678v-2q0 8 -1.5 18.5t-2.5 18.5z" />
<glyph unicode="j" horiz-adv-x="284" d="M-568 -460q0 52 65 60q51 0 86 -106q104 -138 223 -138h57q119 0 228 130q8 18 12 34t5 27q-6 233 -12.5 475t-11.5 475v18q-1 23 -2.5 45.5t-2.5 45.5q0 116 77 116q33 0 63 -55l-11 -56q8 -248 15 -493t14 -493q1 -7 2.5 -16t2.5 -16q0 -258 -313 -357l-87 -14 q-278 0 -405 298zM77 953q14 63 62 63q57 0 68 -69q0 -36 -48 -70h-20q-62 0 -62 76z" />
<glyph unicode="k" horiz-adv-x="721" d="M15 1187v39q0 72 72 72l5 -1q52 -12 52 -76q1 -66 3.5 -142.5t6.5 -165t9.5 -192t12.5 -223.5q116 27 116 59q96 115 96 195v47q-5 17 -10 36t-9 36q0 44 69 64q84 -39 84 -155q0 -61 -25.5 -129t-79.5 -144q230 -168 260 -448q0 -65 -51 -97h-20q-46 0 -73 66l14 45 q-14 99 -59.5 179t-120.5 140q-10 2 -19.5 5t-19.5 5h-7q-70 -48 -121 -48l-12 1q4 -81 8.5 -161t9.5 -161v-20q0 -71 -67 -71q-53 0 -63 75v5q-5 85 -10.5 177.5t-11 186.5t-11 186.5t-10.5 178.5q-7 143 -11.5 252t-6.5 184z" />
<glyph unicode="l" horiz-adv-x="280" d="M45 1231v34q0 66 72 66h4q54 -12 54 -70q0 -473 57 -1179v-31q0 -66 -67 -66q-53 0 -62 68v5q-5 76 -10.5 158t-11.5 165t-11.5 165t-10.5 158q-7 127 -10.5 258.5t-3.5 268.5z" />
<glyph unicode="m" horiz-adv-x="1582" d="M43 735q0 53 68 66h4q57 0 77 -190q138 194 302 194q159 0 282 -219q142 171 303 171h14q284 0 389 -344q21 -112 32 -202.5t11 -162.5q0 -125 -68 -125q-17 0 -33.5 12t-33.5 35l5 88q0 352 -127 508q-42 29 -89 45.5t-95 16.5q-167 0 -250 -210v-4q4 -45 7.5 -93.5 t7.5 -94.5v-73q0 -182 -72 -182q-46 0 -67 65l14 158q0 331 -165 462l2 -2q-40 22 -62 22h-29q-117 0 -213 -228l1 2q-66 -201 -66 -421q0 -2 -2 -7t-4 -7q-9 -8 -18 -14.5t-19 -8.5q-6 -6 -15 -6q-81 0 -81 215v53l14 245q0 48 -5.5 106t-18.5 130z" />
<glyph unicode="n" horiz-adv-x="901" d="M56 733q0 53 68 66h4q56 0 76 -190q138 194 302 194q206 0 319 -324q36 -147 36 -256v-72q0 -182 -72 -182q-46 0 -67 66l14 157q0 334 -165 462l2 -2q-20 11 -35.5 16.5t-26.5 5.5h-29q-116 0 -213 -228l1 2q-66 -201 -66 -421q0 -2 -2 -7t-3 -7q-10 -8 -18.5 -14.5 t-19.5 -8.5l-6 -4t-8 -2q-82 0 -82 215v53l15 246q0 92 -24 235z" />
<glyph unicode="o" horiz-adv-x="877" d="M21 391v15q0 198 236 324h-1q58 30 226 30q124 0 272 -163q73 -125 73 -235v-28q0 -180 -182 -299q-76 -47 -183 -47q-279 0 -420 289q-10 38 -15.5 66t-5.5 48zM151 382q0 -75 58 -139.5t160 -112.5q20 -5 38.5 -8.5t35.5 -3.5h43q151 0 207 175q0 11 1.5 22.5t2.5 22.5 v39q0 179 -204 249q-8 1 -18.5 2.5t-18.5 2.5q-9 -2 -20 -5t-19 -5l-43 10q-68 0 -122 -45.5t-96 -134.5l-5 -56v-13z" />
<glyph unicode="p" horiz-adv-x="793" d="M58 620l2 25q8 89 73 89h8q29 -3 52 -39q91 25 161 25h15.5t14.5 -1q4 0 7.5 -1t7.5 -1q195 -15 326 -269q27 -66 27 -135v-16t-1 -14q-11 -96 -87 -171.5t-218 -123.5l-138 -13q-21 2 -49.5 9t-63.5 21q-2 -109 -2.5 -218.5t-2.5 -216.5q-14 -35 -47 -41q-5 -5 -16 -5 q-68 5 -68 139q0 13 0.5 28.5t2.5 30.5q-1 226 -2 449t-2 449zM185 416q0 -263 23 -265q43 -41 114 -47q8 -1 14.5 -1h13.5q67 0 130.5 32t120.5 91q18 40 21 68q1 8 1 14.5v11.5q0 84 -49 150t-151 115q-14 1 -27.5 2.5t-25.5 2.5q-180 -5 -183 -43q-1 -36 -1.5 -69 t-0.5 -62z" />
<glyph unicode="q" horiz-adv-x="693" d="M34 372l1 12q10 104 72.5 174.5t177.5 112.5q41 11 75 13.5t62 0.5l109 -26q12 32 65 34h3q52 -6 55 -72l-5 -58q-2 -25 -3 -83.5t-1 -148.5q0 -154 3 -401l-9 -400q-1 -43 -66 -48q-62 6 -62 135q0 18 1 39t3 43q-1 13 -1.5 29t-0.5 36q0 24 0.5 49t1.5 54t2.5 64 t3.5 79q-42 -14 -78 -20q-26 -4 -49 -4q-8 0 -16 1q-116 12 -201.5 87.5t-139.5 215.5zM162 343q-1 -5 -1 -11q0 -38 31 -82q34 -49 100 -103q26 -14 46.5 -21t37.5 -9l34 -4h6q20 0 44 11q27 13 59 39q-2 94 -4 181t-3 180q-29 14 -57.5 22t-57.5 11q-13 1 -25 1 q-140 0 -206 -161z" />
<glyph unicode="r" horiz-adv-x="753" d="M39 718q0 53 68 65h4q54 0 69 -143q58 55 134 85t166 30q154 0 249 -98v-22q0 -39 -49 -66q-3 -1 -9 -0.5t-9 1.5q-95 55 -187 55q-88 0 -143 -27.5t-78 -80.5q-28 -74 -45 -184t-17 -245v-38q0 -52 -43 -77h-24q-77 0 -77 211v53l15 245q0 92 -24 236z" />
<glyph unicode="s" horiz-adv-x="765" d="M23 491v27q0 180 187 247q45 10 86.5 15.5t81.5 5.5h9q274 0 274 -147q-20 -49 -68 -49q-14 1 -29 12.5t-35 34.5q-22 11 -56 15.5t-81 4.5h-33q-159 0 -194 -80q-4 -14 -6.5 -26.5t-5.5 -26.5v-11q0 -57 94 -72h28q45 4 92 7.5t91 6.5q183 0 255 -148l5 -53v-10 q0 -158 -228 -243q-57 -20 -122 -20h-19q-223 0 -307 193l-9 58q0 37 48 70h23q68 -13 68 -69l-5 -29q39 -89 121 -89l39 -5h36q164 0 231 125v18q-11 32 -36 50t-65 18h-37q-43 -4 -88.5 -7t-88.5 -7q-193 0 -256 184zM165 577v1v-1z" />
<glyph unicode="t" horiz-adv-x="661" d="M-9 760q0 49 61 73q32 -7 82 -12.5t116 -7.5v273q-1 11 -2 21t-2 21q0 47 70 54h1q29 0 45 -27t23 -81l-5 -170v-86q54 2 107.5 4.5t107.5 4.5q57 0 63 -65q0 -69 -149 -69q-36 -1 -62 -2.5t-61 -2.5l6 -230t7 -230l-5 -187q1 -8 2.5 -16t2.5 -15q0 -54 -70 -60 q-49 0 -64 87l5 185q-4 117 -7 232.5t-7 232.5q-2 0 -3 0.5t-3 0.5h-28q-231 0 -231 72z" />
<glyph unicode="u" horiz-adv-x="961" d="M45 746v33q0 72 67 72q62 0 62 -76v-5q0 -607 161 -673q26 -13 60 -13h19q117 0 187 100.5t91 294.5q0 372 47 377l28 5q58 0 64 -82l-5 -282q0 -171 96 -501v-10q-19 -55 -67 -55q-59 0 -82 146l1 -2l-14 50t-14 51q-45 -96 -153 -167q-50 -28 -92.5 -41t-77.5 -13h-33 q-252 0 -326 438q-10 63 -14.5 150.5t-4.5 202.5z" />
<glyph unicode="v" horiz-adv-x="900" d="M12 867q8 20 20.5 34.5t30.5 22.5h17q30 0 63.5 -54.5t75.5 -163.5l-1 1q64 -139 118 -261.5t97 -233.5q286 676 371 717h20q39 0 61 -56q1 -1 1 -4q0 -8 -3 -13q-146 -232 -393 -844q-30 -27 -60 -27q-57 0 -175 341q-45 84 -105.5 219.5t-137.5 321.5z" />
<glyph unicode="w" horiz-adv-x="1125" d="M49 592q0 151 46 185l35 5q31 0 59 -49q-2 -50 -3.5 -122t-1.5 -163v-76q7 -104 24.5 -171t46.5 -89q84 58 151 336l-1 -2q2 14 4.5 27.5t4.5 27.5q-1 11 -2 21t-2 21q0 130 67 130q61 0 72 -90l-5 -103q0 -100 36.5 -192t102.5 -168q40 -37 72 -37h14q53 0 93 81t65 229 q1 22 2.5 44t2.5 44v89q-4 32 -7 67t-7 67q18 55 67 55q81 0 81 -244q0 -275 -129 -474q-84 -87 -182 -87q-156 0 -283 259q0 8 4 6l-4 4q-92 -235 -225 -235q-144 0 -187 317l-5 99v56q-3 36 -4.5 70t-1.5 62z" />
<glyph unicode="x" horiz-adv-x="837" d="M24 49l304 390l1.5 4.5t1.5 5.5q-101 134 -166.5 229.5t-100.5 154.5q-2 3 -2.5 9t1.5 9q26 53 76 53q39 0 85 -84q48 -72 95 -136.5t92 -118.5q91 124 160 204.5t117 121.5l26 4q62 0 70 -58q0 -2 -1 -7.5t-3 -7.5l-201 -251v1q-45 -61 -65 -87t-20 -32 q95 -125 161 -224t102 -170v-12q0 -43 -64 -61q-26 0 -62.5 46t-78.5 123q-19 25 -35.5 47t-33 43.5t-33 43.5t-35.5 48q-249 -319 -296 -350l-28 -6q-67 18 -67 68z" />
<glyph unicode="y" horiz-adv-x="909" d="M39 513v29q0 254 96 254q26 0 57 -43v-21q-24 -101 -24 -176v-77q0 -201 150 -352q21 -11 36 -16t25 -5h10q150 0 280 235v-1q55 107 55 309q5 60 13.5 92.5t25.5 40.5q12 14 43 14q24 0 39.5 -17.5t17.5 -52.5v-41l-14 -205q6 -109 12 -222.5t12 -222.5 q0 -300 -248 -422l-123 -19q-430 0 -430 143q0 46 59 67q33 0 82 -60q63 -16 219 -16h105q144 0 198 220l-1 -3q2 26 5 51.5t5 51.5l-12 142q-168 -213 -353 -213q-174 0 -282 271q-58 164 -58 265z" />
<glyph unicode="z" horiz-adv-x="1153" d="M36 74q3 77 592 600q2 0 37.5 29t102.5 90q-164 -4 -326.5 -7.5t-326.5 -6.5q-65 6 -65 63v25q24 40 67 42l681 14q182 0 182 -87q-2 -31 -291 -284q-75 -53 -185 -154.5t-255 -251.5l496 -9q48 0 121 5t175 14q2 0 7.5 -1.5t7.5 -3.5q34 -33 34 -67q0 -76 -335 -76 l-489 9q-44 -2 -87 -4.5t-86 -4.5q-50 0 -57 66z" />
<glyph unicode="{" horiz-adv-x="413" d="M25 569q0 53 103 74q-11 48 -18.5 91t-12.5 84q0 201 160 261h8q57 0 62 -66q0 -31 -68 -77q-14 -19 -20.5 -35t-6.5 -33v-67q0 -91 62 -206q0 -61 -71 -72q27 -31 42 -59.5t15 -54.5l-15 -95q7 -180 43 -180h5q8 1 16 2.5t16 2.5q59 -21 59 -67q0 -56 -100 -72 q-168 48 -168 310l14 104q-8 16 -119 124z" />
<glyph unicode="|" horiz-adv-x="288" d="M72 309v24l19 723q10 63 67 63q63 0 63 -77l-19 -738q1 -57 1 -102v-77v-49t-1 -17q11 0 17 -7.5t1 -17.5q-24 -61 -71 -61q-77 0 -77 336z" />
<glyph unicode="}" horiz-adv-x="362" d="M30 1053.5v7.5q21 56 67 56q38 0 69 -53t51 -162l-25 -163q42 -8 64.5 -25t22.5 -43q0 -24 -43 -98q81 -102 81 -242q0 -212 -161 -325l-17 -6q-54 0 -66 68q-1 3 0.5 9t3.5 8q106 115 106 217v67q0 92 -78 154l-14 30q3 14 9 29.5t17 32.5q-73 9 -73 71q20 71 29 116.5 t9 65.5v52q0 14 -12.5 45t-38.5 81q-1 2 -1 7.5z" />
<glyph unicode="&#xad;" d="M78 386q19 55 67 55h154q134 0 134 -67q0 -38 -54 -67l-76 5h-153q-72 0 -72 74z" />
<glyph unicode="&#xc4;" horiz-adv-x="1090" d="M-19 -61q17 51 44.5 203t64.5 408q117 505 446 496h4q321 -8 428 -571q28 -157 33 -542q-24 -50 -65 -49q-37 1 -53 45.5t-14 131.5v27q0 57 -4.5 124.5t-14.5 155.5q-65 2 -129.5 2.5t-126.5 0.5q-90 0 -175 -1.5t-169 -5.5l-59 6q-26 -252 -61.5 -376.5t-81.5 -123.5 h-8q-61 19 -59 69zM210 493v6q0 -1 1 -1q-1 -2 -1 -5zM211 498q4 -2 17 -2q97 3 193 4.5t181 1.5q62 0 117 -1.5t111 -3.5q-84 417 -297 423q-237 8 -322 -422zM352 1167q0 20 7 35l9 11q26 13 44 13q29 0 55 -27q29 -61 7 -82l-25 -25q-2 -2 -7 -4t-7 -2h-21q-62 30 -62 81 zM547 1147q0 51 53 77l13 1q61 -16 61 -81q-22 -62 -54 -62h-35q-2 0 -7 2t-7 4l-15 15q-9 25 -9 44z" />
<glyph unicode="&#xd6;" horiz-adv-x="1124" d="M35 585v19q0 429 281 671q159 76 265 76h10q238 -4 429 -371q32 -84 48 -163.5t16 -154.5q0 -373 -302 -610q-125 -79 -232 -79h-19q-278 0 -455 355q-41 138 -41 257zM166 580q0 -171 73.5 -289t216.5 -179q23 -6 45 -9.5t39 -3.5q197 0 347 272v-1q34 69 50 144.5 t16 157.5q0 263 -168 448q-68 96 -195 100h-4q-204 -1 -320 -185l1 3q-101 -225 -101 -419v-39zM371 1405q0 20 7 35l10 11q24 13 44 13q28 0 55 -27q28 -61 7 -82l-25 -25q-2 -2 -7 -4t-7 -2h-21q-63 31 -63 81zM567 1385q0 52 52 77l14 1q61 -17 61 -81q-24 -62 -55 -62 h-35q-2 0 -6.5 2t-6.5 4l-16 15q-4 13 -6 23t-2 21z" />
<glyph unicode="&#xdc;" horiz-adv-x="1479" d="M34 830v280q5 32 21.5 48.5t46.5 16.5q63 0 63 -73v-272q0 -718 267 -718q129 0 214 140t126 411q2 48 5 95.5t5 95.5q-2 66 -5 131t-5 131q0 51 66 59q70 0 70 -165q1 -38 2.5 -77.5t2.5 -77.5q0 -484 -207 -739q-128 -135 -274 -135q-308 0 -378 531q-10 76 -15 155 t-5 163zM299 1328q0 18 7 35l10 10q24 13 43 13q28 0 56 -26q27 -62 7 -83l-26 -25q-2 -2 -6.5 -4t-6.5 -2h-22q-62 31 -62 82zM494 1307q0 51 53 77l13 1q62 -17 62 -81q-24 -62 -55 -62h-35q-2 0 -6.5 2t-6.5 4l-16 15q-9 25 -9 44z" />
<glyph unicode="&#xe4;" horiz-adv-x="852" d="M23 265q0 350 271 443q67 18 141 18h10q241 0 312 -134l9 -46q-2 -27 -9 -58t-20 -66q8 -85 27.5 -186.5t49.5 -222.5q0 -50 -68 -63q-31 0 -52 42.5t-33 122.5q-2 8 -4.5 16.5t-1.5 4.5q-179 -186 -359 -186q-184 0 -263 231zM148 267q0 -138 124 -187h34q163 0 297 329 q1 7 2.5 14.5t2.5 14.5q-1 14 -2.5 29t-2.5 30l10 82q-19 14 -192 17q-194 0 -255 -155v1q-8 -29 -13 -73t-5 -102zM272 806q0 18 7 35l10 10q24 13 43 13q27 0 55 -26q27 -61 6 -82l-25 -24q-2 -2 -6.5 -4t-6.5 -2h-21q-62 31 -62 80zM465 786q0 52 52 76l13 1 q61 -16 61 -80q-24 -61 -54 -61h-34q-2 0 -7 2t-7 4l-15 15q-9 24 -9 43z" />
<glyph unicode="&#xf6;" horiz-adv-x="898" d="M40 383v15q0 199 236 324h-1q59 31 225 31q124 0 272 -163q73 -127 73 -235v-29q0 -181 -182 -299q-74 -46 -182 -46q-278 0 -420 288q-10 38 -15.5 66.5t-5.5 47.5zM169 374q0 -75 58.5 -139t160.5 -112q20 -6 38.5 -9.5t35.5 -3.5h43q151 0 206 176q1 11 2.5 22t2.5 23 v38q0 179 -204 249q-9 1 -19 2.5t-19 2.5q-8 -2 -19 -5t-19 -4l-43 9q-134 0 -219 -180l-5 -56v-13zM264 869q0 19 7 34l10 11q11 5 21.5 8.5t21.5 3.5q28 0 54 -26q29 -61 7 -81l-25 -25q-2 -2 -6.5 -4t-6.5 -2h-21q-62 30 -62 81zM457 848q0 52 52 76l13 1q61 -15 61 -79 q-24 -62 -54 -62h-35q-2 0 -6.5 2t-6.5 4l-15 15q-9 25 -9 43z" />
<glyph unicode="&#xfc;" horiz-adv-x="959" d="M49 794v33q0 72 67 72q62 0 62 -76v-5q0 -607 161 -673q26 -13 60 -13h19q117 0 187 100.5t91 294.5q0 372 47 377l28 5q58 0 64 -82l-5 -282q0 -171 96 -501v-10q-19 -55 -67 -55q-59 0 -82 146l1 -2l-14 50t-15 51q-43 -96 -152 -167q-50 -28 -92.5 -41t-77.5 -13h-33 q-252 0 -326 438q-10 62 -14.5 150t-4.5 203zM295 983q0 19 7 34l9 11q12 5 22.5 8.5t20.5 3.5q30 0 55 -26q27 -61 7 -81l-25 -25q-2 -2 -7 -4t-7 -2h-21q-61 30 -61 81zM488 963q0 51 51 75l14 1q60 -15 60 -79q-22 -62 -53 -62h-35q-2 0 -6.5 2t-6.5 4l-16 15 q-4 13 -6 23t-2 21z" />
<glyph unicode="&#x2000;" horiz-adv-x="732" />
<glyph unicode="&#x2001;" horiz-adv-x="1464" />
<glyph unicode="&#x2002;" horiz-adv-x="732" />
<glyph unicode="&#x2003;" horiz-adv-x="1464" />
<glyph unicode="&#x2004;" horiz-adv-x="488" />
<glyph unicode="&#x2005;" horiz-adv-x="366" />
<glyph unicode="&#x2006;" horiz-adv-x="244" />
<glyph unicode="&#x2007;" horiz-adv-x="244" />
<glyph unicode="&#x2008;" horiz-adv-x="183" />
<glyph unicode="&#x2009;" horiz-adv-x="292" />
<glyph unicode="&#x200a;" horiz-adv-x="81" />
<glyph unicode="&#x2010;" d="M78 386q19 55 67 55h154q134 0 134 -67q0 -38 -54 -67l-76 5h-153q-72 0 -72 74z" />
<glyph unicode="&#x2011;" d="M78 386q19 55 67 55h154q134 0 134 -67q0 -38 -54 -67l-76 5h-153q-72 0 -72 74z" />
<glyph unicode="&#x2012;" d="M78 386q19 55 67 55h154q134 0 134 -67q0 -38 -54 -67l-76 5h-153q-72 0 -72 74z" />
<glyph unicode="&#x2013;" horiz-adv-x="1177" d="M78 386q55 55 193 55h444q387 0 387 -67q0 -38 -156 -67l-219 5h-441q-208 0 -208 74z" />
<glyph unicode="&#x2014;" horiz-adv-x="2201" d="M78 386q110 55 387 55h888q773 0 773 -67q0 -38 -312 -67l-438 5h-883q-415 0 -415 74z" />
<glyph unicode="&#x2018;" horiz-adv-x="252" d="M14 994q0 97 123 153q59 0 77 -69l-9 -25q-51 -42 -51 -65v-4q0 -28 55 -122q-15 -75 -70 -75q-80 4 -125 207z" />
<glyph unicode="&#x2019;" horiz-adv-x="236" d="M28 998q17 68 68 68l9 -2q107 -53 107 -150q-39 -204 -116 -207q-48 0 -63 74q49 95 49 122v5q0 23 -47 67z" />
<glyph unicode="&#x201c;" horiz-adv-x="477" d="M43 955q0 109 110 157q47 0 71 -48v-36q-55 -60 -55 -69q0 -29 53 -135q2 -3 1.5 -9.5t-2.5 -9.5q-31 -52 -71 -52q-68 0 -107 202zM190 955q0 105 115 155q2 1 8 1t8 -1q55 -24 55 -64l-5 -30q-48 -42 -48 -57v-15q0 -22 50 -122q-14 -69 -65 -69q-38 0 -68 50t-50 152z " />
<glyph unicode="&#x201d;" horiz-adv-x="437" d="M70 1040q0 36 55 63h15q112 -51 112 -156q-39 -202 -115 -202q-52 0 -63 70q49 101 49 122v14q0 17 -47 58zM219 1019v38q24 47 67 47l7 -1q103 -46 103 -156q-39 -202 -105 -202q-39 0 -69 53q-2 2 -2.5 8.5t1.5 9.5q50 101 50 135q0 12 -52 68z" />
<glyph unicode="&#x202f;" horiz-adv-x="292" />
<glyph unicode="&#x205f;" horiz-adv-x="366" />
<glyph unicode="&#x20ac;" horiz-adv-x="1139" d="M37 326q15 56 72 56h97q-3 4 -3 11l7 37v18h-5q-131 7 -131 56v22q0 2 2 7t4 7l23 23q2 2 7 4t8 2l51 -8h60q40 125 111 224t172 169h-1q117 84 253 137l7 1q32 0 57 -53q0 -19 -55 -54.5t-159 -86.5q-128 -91 -192 -171t-69 -155q125 36 213.5 53.5t144.5 17.5h29 q71 0 88 -53q0 -35 -55 -61l-41 9q-61 -1 -164 -22.5t-248 -63.5q-1 -5 -2 -8.5t-2 -8.5v-40q4 0 8 -4q80 17 153.5 26t143.5 9q45 0 76 -46q2 -2 2.5 -7.5t-0.5 -8.5q-14 -51 -71 -51h-46q-89 0 -251 -27q7 -97 176 -169l-1 1q27 -10 62.5 -15.5t81.5 -5.5h16q174 0 348 52 q2 1 8 0t9 -3l37 -31q2 -2 5 -7t3 -8q0 -72 -228 -94l4 5q-19 -10 -65.5 -16t-120.5 -11q-309 0 -424 235q-17 46 -14 49h-82q-109 0 -109 58z" />
<glyph unicode="&#x25fc;" horiz-adv-x="905" d="M0 0v905h905v-905h-905z" />
</font>
</defs>
</svg>
